<svg xmlns="http://www.w3.org/2000/svg" viewBox="0 0 633 779.84"><defs><style>.cls-1{isolation:isolate;}.cls-2{opacity:0.25;mix-blend-mode:overlay;}.cls-3{fill:#ea6d2f;}.cls-4{fill:#1a223d;}.cls-5{fill:#212e63;}.cls-6{fill:#ff8048;}.cls-7{fill:#ffb0ac;}.cls-8{fill:none;stroke:#000;stroke-miterlimit:10;stroke-width:0.25px;}.cls-9{fill:#fff;}.cls-10{fill:#f2f2f2;}.cls-11{fill:#43b02a;}.cls-12{font-size:26px;font-family:Poppins-Medium, Poppins;font-weight:500;}</style></defs><title>IJ Figure</title><g class="cls-1"><g id="Layer_1" data-name="Layer 1"><ellipse class="cls-2" cx="121.5" cy="760.84" rx="91.5" ry="19"/><ellipse class="cls-2" cx="541.5" cy="756.84" rx="91.5" ry="19"/><path class="cls-3" d="M734.18,857.92s-3.68,36-1.18,38.5,82.5,2.5,82.5,2.5,7-11-5-14-44.64-27-44.64-27Z" transform="translate(-643.5 -150.08)"/><polygon class="cls-4" points="154 432.84 123 707.84 114 707.84 133.12 433.75 154 432.84"/><polygon class="cls-5" points="68.32 434.83 78 729.84 114 729.84 137 433.75 68.32 434.83"/><path class="cls-6" d="M724.18,879.92s-3.68,36-1.18,38.5,82.5,2.5,82.5,2.5,7-11-5-14-44.64-27-44.64-27Z" transform="translate(-643.5 -150.08)"/><polygon class="cls-6" points="125 243.72 158.5 327.9 148 329.84 125 257.84 125 243.72"/><path class="cls-3" d="M754,365.92s12.5,9,13.5,13,1,29,1,29l-9.32-13.68-8.68-21.32Z" transform="translate(-643.5 -150.08)"/><polygon class="cls-3" points="147 327.84 173 324.84 180 362.84 155.89 369.12 147 327.84"/><path class="cls-7" d="M817.28,479.17l36.22-13.25s32-20,35-19-10,15-10,15,30-4,32-3-12,20-31,25-21,4-21,4l-36,19.81Z" transform="translate(-643.5 -150.08)"/><path class="cls-8" d="M749.5,290.92" transform="translate(-643.5 -150.08)"/><path class="cls-7" d="M750.5,372.92l6-12s14,2,16,0,9-19,0-67.55c-1.24-6.66-27-2.45-27-2.45l-30,28-1,37Z" transform="translate(-643.5 -150.08)"/><path class="cls-6" d="M712.5,365.92l1-15s43,20,47,27-3,20-3,20Z" transform="translate(-643.5 -150.08)"/><path class="cls-3" d="M712.5,365.92s-15,20-19,39,13,180,13,180,92,0,93-3S778,413.84,758.26,396.38Z" transform="translate(-643.5 -150.08)"/><rect class="cls-3" x="643.5" y="639.92" width="164" height="118" rx="4.1" transform="translate(807.5 1247.76) rotate(-180)"/><path class="cls-6" d="M707.5,379.92s-21,11.31-22,33.15,8,119.85,8,119.85l32-11s8-113,8-115S713.5,378.92,707.5,379.92Z" transform="translate(-643.5 -150.08)"/><polygon class="cls-3" points="109.96 489.84 109.96 474.57 101 465.84 66 466.84 59 472.84 59 489.84 67 489.84 67 478.84 69.95 475.25 99.55 476.65 103 478.84 103.08 489.84 109.96 489.84"/><path class="cls-7" d="M722,523.14l11.54,75.78s24,11,25,28c0,0-11-3-13-8s-2,15-5,15-25.44-.1-26.2-1.46c-4.8-8.54-2.8-35.54-2.8-35.54l-14-65.38Z" transform="translate(-643.5 -150.08)"/><polygon class="cls-3" points="48.24 362.95 83.49 350.74 82 371.84 49 382.84 48.24 362.95"/><path class="cls-4" d="M752.5,292.92s21,3,27-2-7-8-7-8,10-2,5-4-37-13-59-2-4,73-4,73l6-18s2-21,12-22,9,6,9,6S752.5,304.92,752.5,292.92Z" transform="translate(-643.5 -150.08)"/><polygon class="cls-9" points="114 246.84 116.29 242.58 124.95 250.08 125 257.84 137 273.84 160 389.84 154 411.84 143 391.84 126 274.84 122.66 259.71 114 246.84"/><path class="cls-7" d="M1107.05,467.15l-51.6-11.23s-31.85-14.49-33.83-14.26,8.65,14.11,8.65,14.11-22.76-5.46-26.51-3,20.94,24.79,31.33,27.63,24.18.27,24.18.27l44.23,14.27Z" transform="translate(-643.5 -150.08)"/><polygon class="cls-10" points="457 348.84 462 312.84 483 316.84 479 354.84 457 348.84"/><path class="cls-9" d="M1118.5,504.92l5.21-38.53s17.08-63.82,40.94-82.64c0,0-25.08,72-23.15,128.17Z" transform="translate(-643.5 -150.08)"/><rect class="cls-7" x="535.2" y="709.84" width="35.8" height="10"/><path class="cls-4" d="M1216.08,865.38l3.34,21.73a6.43,6.43,0,0,1-6.36,7.41H1128.4s-5.61-12.33,11.21-17.93,35-5.61,38.35-11.21Z" transform="translate(-643.5 -150.08)"/><rect class="cls-7" x="560.2" y="736.84" width="35.8" height="10"/><polygon class="cls-5" points="504.41 400.82 556 736.84 599 736.84 593 393.84 504.41 400.82"/><polygon class="cls-4" points="552 709.84 533 709.84 504 400.84 552 709.84"/><path class="cls-7" d="M1144.5,310.92s-11,61-1,61,15-2,15-2l8,18,36-20-7-38Z" transform="translate(-643.5 -150.08)"/><path class="cls-10" d="M1143.5,311.92l58,25,9-14s26.06-.87,31.22-19.61a8.39,8.39,0,0,0-1.63-7.51,161,161,0,0,0-32.59-29.88c-23-16-38-10-43-5s-9,19-7,25Z" transform="translate(-643.5 -150.08)"/><polygon class="cls-4" points="558 186.84 558.48 215 552.88 184.63 558 186.84"/><path class="cls-10" d="M1242.5,542.92c3-6,12-86-10-136-15.2-34.54-24-45-24-45a52.69,52.69,0,0,0-38,14c-17,16-24,60-27,80s-3,96,3,96S1239.5,548.92,1242.5,542.92Z" transform="translate(-643.5 -150.08)"/><path class="cls-11" d="M1147.5,417.92l22-9s-3,43,15,100c.72,2.28,45,24,45,24l-4,178-57,2S1123.5,498.92,1147.5,417.92Z" transform="translate(-643.5 -150.08)"/><path class="cls-9" d="M1201.5,387.92a56.51,56.51,0,0,0-23,19c-10,14-2,72,9,98l-6,29,39,16,9-21s11-85,6-99S1210.5,389.92,1201.5,387.92Z" transform="translate(-643.5 -150.08)"/><path class="cls-7" d="M1185.76,535.67l-20.26,70.25s-15,47,1,53,19-16,16-22,5-35,5-35l28.5-53.85Z" transform="translate(-643.5 -150.08)"/><path class="cls-10" d="M1229.61,528l-42.11-23.12-6,29,39,16,9-21S1229.54,528.61,1229.61,528Z" transform="translate(-643.5 -150.08)"/><path class="cls-9" d="M1157.5,285.92l-14,26,58,25,9-14a45.83,45.83,0,0,0,6.39-.81C1213.28,307.3,1157.5,285.92,1157.5,285.92Z" transform="translate(-643.5 -150.08)"/><polygon class="cls-11" points="526 258.84 565 211.84 560 211.84 526 258.84"/><polygon class="cls-11" points="586 382.84 601.5 378.83 601 384.84 586 382.84"/><path class="cls-5" d="M1241.08,892.38l3.34,21.73a6.43,6.43,0,0,1-6.36,7.41H1153.4s-5.61-12.33,11.21-17.93,35-5.61,38.35-11.21Z" transform="translate(-643.5 -150.08)"/><path class="cls-9" d="M237.31,25H400.17a0,0,0,0,1,0,0V237.54A10.46,10.46,0,0,1,389.71,248H247.76a10.46,10.46,0,0,1-10.46-10.46V25A0,0,0,0,1,237.31,25Z"/><circle class="cls-3" cx="318.81" cy="12" r="12"/><rect class="cls-3" x="220.81" y="12" width="197" height="13" rx="6.5"/><rect class="cls-10" x="252.31" y="111.5" width="23" height="23" rx="3.2"/><rect class="cls-10" x="252.31" y="156.5" width="23" height="23" rx="3.2"/><rect class="cls-10" x="252.31" y="201.5" width="23" height="23" rx="3.2"/><rect class="cls-3" x="281.31" y="114.5" width="104" height="3"/><rect class="cls-11" x="281.31" y="120.5" width="87" height="3"/><rect class="cls-3" x="281.31" y="126.5" width="50" height="3"/><rect class="cls-3" x="281.31" y="159.5" width="104" height="3"/><rect class="cls-11" x="281.31" y="165.5" width="87" height="3"/><rect class="cls-3" x="281.31" y="171.5" width="50" height="3"/><rect class="cls-3" x="281.31" y="204.5" width="104" height="3"/><rect class="cls-11" x="281.31" y="210.5" width="87" height="3"/><rect class="cls-3" x="281.31" y="216.5" width="50" height="3"/><path class="cls-11" d="M904.81,280.08h-.08a1.52,1.52,0,0,1-1.09-.56l-4-5a1.5,1.5,0,0,1,2.35-1.88l3,3.7,8.81-8.82a1.5,1.5,0,0,1,2.12,2.12l-10,10A1.5,1.5,0,0,1,904.81,280.08Z" transform="translate(-643.5 -150.08)"/><path class="cls-11" d="M904.81,325.08h-.08a1.52,1.52,0,0,1-1.09-.56l-4-5a1.5,1.5,0,0,1,2.35-1.88l3,3.7,8.81-8.82a1.5,1.5,0,0,1,2.12,2.12l-10,10A1.5,1.5,0,0,1,904.81,325.08Z" transform="translate(-643.5 -150.08)"/><path class="cls-11" d="M904.81,371.08h-.08a1.52,1.52,0,0,1-1.09-.56l-4-5a1.5,1.5,0,0,1,2.35-1.88l3,3.7,8.81-8.82a1.5,1.5,0,0,1,2.12,2.12l-10,10A1.5,1.5,0,0,1,904.81,371.08Z" transform="translate(-643.5 -150.08)"/><text class="cls-12" transform="translate(253.04 63.2)">Job<tspan x="0" y="29">Search</tspan></text></g></g></svg>