<?xml version="1.0" encoding="utf-8"?>
<!-- Generator: Adobe Illustrator 22.1.0, SVG Export Plug-In . SVG Version: 6.00 Build 0)  -->
<svg version="1.1" id="Layer_1" xmlns="http://www.w3.org/2000/svg" xmlns:xlink="http://www.w3.org/1999/xlink" x="0px" y="0px"
	 viewBox="0 0 56.2 56.6" style="enable-background:new 0 0 56.2 56.6;" xml:space="preserve">
<style type="text/css">
	.st0{fill:#FFFFFF;}
</style>
<g>
	<rect x="6.9" y="43.4" class="st0" width="6.6" height="6.6"/>
	<rect x="15.8" y="43.4" class="st0" width="6.6" height="6.6"/>
	<rect x="24.7" y="43.4" class="st0" width="6.6" height="6.6"/>
	<rect x="33.6" y="43.4" class="st0" width="6.6" height="6.6"/>
	<rect x="6.9" y="33.4" class="st0" width="6.6" height="6.6"/>
	<rect x="15.8" y="33.4" class="st0" width="6.6" height="6.6"/>
	<rect x="24.7" y="33.4" class="st0" width="6.6" height="6.6"/>
	<rect x="33.6" y="33.4" class="st0" width="6.6" height="6.6"/>
	<rect x="42.5" y="33.4" class="st0" width="6.6" height="6.6"/>
	<rect x="6.9" y="24.6" class="st0" width="6.6" height="6.6"/>
	<rect x="15.8" y="24.6" class="st0" width="6.6" height="6.6"/>
	<rect x="24.7" y="24.6" class="st0" width="6.6" height="6.6"/>
	<rect x="33.6" y="24.6" class="st0" width="6.6" height="6.6"/>
	<rect x="42.5" y="24.6" class="st0" width="6.6" height="6.6"/>
	<rect x="15.8" y="15.8" class="st0" width="6.6" height="6.6"/>
	<rect x="24.7" y="15.8" class="st0" width="6.6" height="6.6"/>
	<rect x="33.6" y="15.8" class="st0" width="6.6" height="6.6"/>
	<rect x="42.5" y="15.8" class="st0" width="6.6" height="6.6"/>
	<path class="st0" d="M2,0C0.9,0,0,0.9,0,2v52.6c0,1.1,0.9,2,2,2h52.2c1.1,0,2-0.9,2-2V2c0-1.1-0.9-2-2-2H2z M52.9,51.4
		c0,1.1-0.9,2-2,2H5c-1.1,0-2-0.9-2-2V15c0-1.1,0.9-2,2-2h45.9c1.1,0,2,0.9,2,2L52.9,51.4L52.9,51.4z"/>
</g>
</svg>
